# File produced by Open Asset Import Library (http://www.assimp.sf.net)
# (assimp v3.1.71981620)

mtllib Variation01_Trashbin.mtl

# 104 vertex positions
v  -25 85 -30
v  -25 75 -30
v  25 75 -30
v  25 85 -30
v  -25 85 30
v  -25 75 30
v  25 75 30
v  25 85 30
v  -20 105 35
v  20 105 35
v  20 109.877 34.5196
v  -20 109.877 34.5196
v  20 118.889 30.7867
v  -20 118.889 30.7867
v  -20 114.567 33.097
v  20 114.567 33.097
v  20 122.678 27.6776
v  -20 122.678 27.6776
v  20 130 9.99998
v  -20 130 9.99998
v  -20 129.52 14.8772
v  20 129.52 14.8772
v  20 128.097 19.567
v  -20 128.097 19.567
v  -20 125.787 23.8892
v  20 125.787 23.8892
v  -20 130 -15
v  20 130 -15
v  -20 99.8773 -25
v  20 99.8773 -25
v  20 95 -25
v  -20 95 -25
v  -20 104.567 -25
v  20 104.567 -25
v  20 112.678 17.6777
v  20 108.889 20.7867
v  20 108.889 -25
v  20 112.678 -25
v  16 4 4.87725
v  16 119.52 4.87723
v  16 120 -9.53674e-06
v  16 4 9.29832e-06
v  -20 112.678 -25
v  -20 108.889 -25
v  -20 115.787 -25
v  20 115.787 -25
v  20 104.567 23.097
v  20 99.8773 24.5196
v  20 7.62939e-06 25
v  20 0 -25
v  20 95 25
v  -20 115.787 13.8892
v  -20 118.097 9.56706
v  -20 118.097 -25
v  20 118.097 -25
v  -20 7.62939e-06 25
v  -20 95 25
v  -20 0 -25
v  20 119.52 -25
v  -20 119.52 -25
v  -20 120 -25
v  20 120 -25
v  -20 119.52 4.87723
v  -20 120 -9.53674e-06
v  -20 99.8773 24.5196
v  20 118.097 9.56706
v  20 115.787 13.8892
v  20 120 -9.53674e-06
v  20 119.52 4.87723
v  -16 99.8773 24.5196
v  16 99.8773 24.5196
v  -20 112.678 17.6777
v  -20 104.567 23.097
v  -20 108.889 20.7867
v  16 4 9.56708
v  16 118.097 9.56706
v  -16 4 17.6777
v  -16 112.678 17.6777
v  -16 108.889 20.7867
v  -16 4 20.7867
v  -16 4 23.097
v  -16 104.567 23.097
v  -16 4 24.5196
v  -16 4 13.8893
v  -16 115.787 13.8892
v  16 4 24.5196
v  16 104.567 23.097
v  16 4 23.097
v  16 4 17.6777
v  16 112.678 17.6777
v  16 115.787 13.8892
v  16 4 13.8892
v  16 3.99999 -20
v  16 120 -20
v  -16 120 -20
v  -16 3.99999 -20
v  -16 4 9.29832e-06
v  16 108.889 20.7867
v  -16 119.52 4.87723
v  -16 120 -9.53674e-06
v  -16 118.097 9.56706
v  -16 4 4.87725
v  -16 4 9.56708
v  16 4 20.7867

# 199 UV coordinates
vt 0.767709 0.30648 0
vt 0.767709 0.263158 0
vt 0.984319 0.263158 0
vt 0.984319 0.30648 0
vt 0.507776 0.30648 0
vt 0.507776 0.263158 0
vt 0.291165 0.263158 0
vt 0.291165 0.30648 0
vt 0.0312321 0.30648 0
vt 0.031232 0.263158 0
vt 0.620467 0.605139 0
vt 0.395084 0.605139 0
vt 0.395084 0.583885 0
vt 0.620467 0.583885 0
vt 0.395084 0.54185 0
vt 0.620467 0.54185 0
vt 0.620467 0.563045 0
vt 0.395084 0.563045 0
vt 0.395084 0.521074 0
vt 0.620467 0.521074 0
vt 0.395084 0.443038 0
vt 0.620467 0.443038 0
vt 0.620467 0.457277 0
vt 0.395084 0.457277 0
vt 0.395084 0.47811 0
vt 0.620467 0.47811 0
vt 0.620467 0.499496 0
vt 0.395084 0.499496 0
vt 0.620467 0.328774 0
vt 0.395084 0.328774 0
vt 0.0457268 0.337079 0
vt 0.0457267 7.03201e-08 0
vt 0.0568098 7.03201e-08 0
vt 0.0568098 0.337079 0
vt 0.0350696 0.337079 0
vt 0.0350696 7.03201e-08 0
vt 0.0166391 0.386443 0
vt 0.0252479 0.365483 0
vt 0.025248 0.674157 0
vt 0.0166392 0.674157 0
vt 0.135674 0.674157 0
vt 0.135674 0.998651 0
vt 0.109075 1 0
vt 0.109075 0.674157 0
vt 0.0166392 0.337079 0
vt 0.0166392 7.03201e-08 0
vt 0.0252479 7.03201e-08 0
vt 0.025248 0.337079 0
vt 0.00957421 0.337079 0
vt 0.00957414 8.03658e-08 0
vt 0.0350695 0.349908 0
vt 0.0457267 0.340317 0
vt 0.0457268 0.674157 0
vt 0.0350696 0.674157 0
vt 0.272687 0.337079 0
vt 0.272687 0.674157 0
vt 0.0568098 0.674157 0
vt 0.0568097 0.337079 0
vt 0.484779 0.325244 0
vt 0.461207 0.331733 0
vt 0.272687 0.331733 0
vt 0.272687 0.325244 0
vt 0.00432441 0.337079 0
vt 0.00432437 8.03658e-08 0
vt 0.545374 0 0
vt 0.545374 0.266854 0
vt 0.272687 0.266854 0
vt 0.272687 4.01829e-08 0
vt 0.782129 0.337079 0
vt 0.782129 0.674157 0
vt 0.568345 0.674157 0
vt 0.568345 0.337079 0
vt 0.00109156 9.04115e-08 0
vt 0.00109163 0.337079 0
vt 5.68869e-08 0.337079 0
vt 0 9.04115e-08 0
vt 0.272687 0 0
vt 0.272687 0.337079 0
vt 0.43563 0.335729 0
vt 0.409031 0.337079 0
vt 0.272687 0.337079 0
vt 0.272687 0.335729 0
vt 0.542754 0.280554 0
vt 0.272687 0.280554 0
vt 0.00432433 0.441121 0
vt 0.0095741 0.411983 0
vt 0.00957419 0.674157 0
vt 0.00432441 0.674157 0
vt 0 0.505618 0
vt 0.00109155 0.472738 0
vt 0.0010916 0.674157 0
vt 5.68869e-08 0.674157 0
vt 0.557006 0.370787 0
vt 0.557006 0.640449 0
vt 0.50544 0.31651 0
vt 0.272687 0.31651 0
vt 0.534995 0.293728 0
vt 0.522396 0.305869 0
vt 0.272687 0.305869 0
vt 0.272687 0.293728 0
vt 0.161251 0.674157 0
vt 0.161251 0.994655 0
vt 0.448283 1 0
vt 0.448283 0.694726 0
vt 0.465239 0.705367 0
vt 0.465239 1 0
vt 0.477838 1 0
vt 0.477838 0.717508 0
vt 0.485597 0.730682 0
vt 0.485597 1 0
vt 0.427622 1 0
vt 0.427622 0.685992 0
vt 0.242798 0.674157 0
vt 0.242798 0.943475 0
vt 0.23504 0.956649 0
vt 0.23504 0.674157 0
vt 0.205484 0.674157 0
vt 0.205484 0.979432 0
vt 0.184823 0.988165 0
vt 0.184823 0.674157 0
vt 0.485597 0.99684 0
vt 0.485597 0.674157 0
vt 0.703746 0.674157 0
vt 0.703747 0.99684 0
vt 0.272687 0.674157 0
vt 0.272687 0.337079 0
vt 0.545374 0.337079 0
vt 0.545374 0.674157 0
vt 0.545374 0.337079 0
vt 0.572472 0.303371 0
vt 0.680862 0.303371 0
vt 0.680862 0.337079 0
vt 0.545374 0 0
vt 0.572472 0.0337079 0
vt 0.921896 0.808143 0
vt 0.703746 0.808143 0
vt 0.703746 0.674157 0
vt 0.921896 0.674157 0
vt 0.79634 2.00915e-08 0
vt 0.79634 0.0337079 0
vt 0.778527 0.0337079 0
vt 0.778527 0 0
vt 0.557006 0.674157 0
vt 0.79634 0.337079 0
vt 0.79634 0.303371 0
vt 0.809959 0.303371 0
vt 0.809959 0.337079 0
vt 0.809959 0 0
vt 0.809959 0.0337079 0
vt 0.557006 0.337079 0
vt 0.778527 0.337079 0
vt 0.778527 0.303371 0
vt 0.545374 0.674157 0
vt 0.545374 0.640449 0
vt 0.545374 0.370787 0
vt 0.707416 0.303371 0
vt 0.707416 0.337079 0
vt 0.707416 2.00915e-08 0
vt 0.707416 0.0337079 0
vt 0.680862 0.0337079 0
vt 0.680862 2.00915e-08 0
vt 0.733194 0.337079 0
vt 0.733194 0.303371 0
vt 0.757206 0.303371 0
vt 0.757206 0.337079 0
vt 0.757206 3.01372e-08 0
vt 0.757206 0.0337079 0
vt 0.733194 0.0337079 0
vt 0.733194 3.01372e-08 0
vt 0.703747 0.840816 0
vt 0.921896 0.840816 0
vt 0.921896 0.872235 0
vt 0.703746 0.872235 0
vt 0.921896 0.90119 0
vt 0.703747 0.90119 0
vt 0.921896 0.92657 0
vt 0.703747 0.92657 0
vt 0.921896 0.947398 0
vt 0.703747 0.947398 0
vt 0.921896 0.962875 0
vt 0.703747 0.962875 0
vt 0.921896 0.972406 0
vt 0.703747 0.972406 0
vt 0.378472 1 0
vt 0.378472 0.675507 0
vt 0.40405 0.679503 0
vt 0.40405 1 0
vt 0.351873 1 0
vt 0.351873 0.674157 0
vt 0.22244 0.96879 0
vt 0.22244 0.674157 0
vt 0.782129 0.337079 0
vt 1 0.337079 0
vt 1 0.606742 0
vt 0.782129 0.606742 0
vt 1.62534e-08 1 0
vt 0 0.674157 0
vt 0.242798 1 0
vt 0.242798 0.674157 0

# 25 vertex normals
vn 0 1.62921e-07 1
vn -1 0 -0
vn 1 0 0
vn 0 0.097996 0.995187
vn 0 0.195077 0.980788
vn 0 0.555573 0.831468
vn 0 0.382682 0.92388
vn 0 0.707107 0.707107
vn 0 0.998797 0.0490439
vn 0 0.980788 0.195077
vn 0 0.92388 0.382681
vn 0 0.831468 0.555573
vn 0 1 -1.62921e-07
vn 0 -1.62921e-07 -1
vn 0 0.0485152 0.998822
vn 0 0.156651 0.987654
vn 0 -1 1.62921e-07
vn 0 0.998794 0.0490981
vn 0 0.548438 0.836191
vn 0 0.702279 0.711902
vn 0 0.188028 0.982164
vn 0 0.373948 0.92745
vn 0 0.980485 0.196595
vn 0 0.922646 0.385647
vn 0 0.8287 0.559693

# Mesh 'Plane.001_Plane.001' with 26 faces
g Plane.001_Plane.001
usemtl M_Variation_01_Trashbin_Header
f  1/1/1 2/2/1 3/3/1
f  3/3/1 4/4/1 1/1/1
f  5/5/1 6/6/1 7/7/1
f  7/7/1 8/8/1 5/5/1
f  8/8/2 4/9/2 3/10/2
f  3/10/2 7/7/2 8/8/2
f  6/6/3 2/2/3 1/1/3
f  1/1/3 5/5/3 6/6/3
f  9/11/4 10/12/4 11/13/5
f  11/13/5 12/14/5 9/11/4
f  13/15/6 14/16/6 15/17/7
f  15/17/7 16/18/7 13/15/6
f  17/19/8 18/20/8 14/16/6
f  14/16/6 13/15/6 17/19/8
f  16/18/7 15/17/7 12/14/5
f  12/14/5 11/13/5 16/18/7
f  19/21/9 20/22/9 21/23/10
f  21/23/10 22/24/10 19/21/9
f  23/25/11 24/26/11 25/27/12
f  25/27/12 26/28/12 23/25/11
f  26/28/12 25/27/12 18/20/8
f  18/20/8 17/19/8 26/28/12
f  22/24/10 21/23/10 24/26/11
f  24/26/11 23/25/11 22/24/10
f  27/29/13 20/22/9 19/21/9
f  19/21/9 28/30/13 27/29/13

# Mesh 'Cube_Cube' with 148 faces
g Cube_Cube
usemtl M_Variation_01_Trashbin_Body
f  29/31/14 30/32/14 31/33/14
f  31/33/14 32/34/14 29/31/14
f  33/35/14 34/36/14 30/32/14
f  30/32/14 29/31/14 33/35/14
f  35/37/3 36/38/3 37/39/3
f  37/39/3 38/40/3 35/37/3
f  39/41/2 40/42/2 41/43/2
f  41/43/2 42/44/2 39/41/2
f  43/45/14 38/46/14 37/47/14
f  37/47/14 44/48/14 43/45/14
f  45/49/14 46/50/14 38/46/14
f  38/46/14 43/45/14 45/49/14
f  47/51/3 48/52/3 30/53/3
f  30/53/3 34/54/3 47/51/3
f  49/55/3 50/56/3 31/57/3
f  31/57/3 51/58/3 49/55/3
f  44/48/14 37/47/14 34/36/14
f  34/36/14 33/35/14 44/48/14
f  52/59/2 53/60/2 54/61/2
f  54/61/2 45/62/2 52/59/2
f  54/63/14 55/64/14 46/50/14
f  46/50/14 45/49/14 54/63/14
f  56/65/2 57/66/2 32/67/2
f  32/67/2 58/68/2 56/65/2
f  56/69/1 49/70/1 51/71/15
f  51/71/15 57/72/15 56/69/1
f  59/73/14 60/74/14 61/75/14
f  61/75/14 62/76/14 59/73/14
f  50/77/14 58/78/14 32/34/14
f  32/34/14 31/33/14 50/77/14
f  60/74/14 59/73/14 55/64/14
f  55/64/14 54/63/14 60/74/14
f  63/79/2 64/80/2 61/81/2
f  61/81/2 60/82/2 63/79/2
f  57/66/2 65/83/2 29/84/2
f  29/84/2 32/67/2 57/66/2
f  66/85/3 67/86/3 46/87/3
f  46/87/3 55/88/3 66/85/3
f  68/89/3 69/90/3 59/91/3
f  59/91/3 62/92/3 68/89/3
f  70/93/16 57/72/15 51/71/15
f  51/71/15 71/94/16 70/93/16
f  72/95/2 52/59/2 45/62/2
f  45/62/2 43/96/2 72/95/2
f  73/97/2 74/98/2 44/99/2
f  44/99/2 33/100/2 73/97/2
f  65/83/2 73/97/2 33/100/2
f  33/100/2 29/84/2 65/83/2
f  69/90/3 66/85/3 55/88/3
f  55/88/3 59/91/3 69/90/3
f  67/86/3 35/37/3 38/40/3
f  38/40/3 46/87/3 67/86/3
f  53/60/2 63/79/2 60/82/2
f  60/82/2 54/61/2 53/60/2
f  74/98/2 72/95/2 43/96/2
f  43/96/2 44/99/2 74/98/2
f  48/52/3 51/58/3 31/57/3
f  31/57/3 30/53/3 48/52/3
f  36/38/3 47/51/3 34/54/3
f  34/54/3 37/39/3 36/38/3
f  75/101/2 76/102/2 40/42/2
f  40/42/2 39/41/2 75/101/2
f  77/103/3 78/104/3 79/105/3
f  79/105/3 80/106/3 77/103/3
f  81/107/3 82/108/3 70/109/3
f  70/109/3 83/110/3 81/107/3
f  84/111/3 85/112/3 78/104/3
f  78/104/3 77/103/3 84/111/3
f  86/113/2 71/114/2 87/115/2
f  87/115/2 88/116/2 86/113/2
f  89/117/2 90/118/2 91/119/2
f  91/119/2 92/120/2 89/117/2
f  93/121/1 94/122/1 95/123/1
f  95/123/1 96/124/1 93/121/1
f  50/125/17 49/126/17 56/127/17
f  56/127/17 58/128/17 50/125/17
f  62/129/13 94/130/13 41/131/18
f  41/131/18 68/132/18 62/129/13
f  61/133/13 95/134/13 94/130/13
f  94/130/13 62/129/13 61/133/13
f  97/135/13 42/136/13 93/137/13
f  93/137/13 96/138/13 97/135/13
f  74/139/19 79/140/19 78/141/20
f  78/141/20 72/142/20 74/139/19
f  51/71/15 48/143/21 71/94/16
f  36/144/19 98/145/19 87/146/22
f  87/146/22 47/147/22 36/144/19
f  73/148/22 82/149/22 79/140/19
f  79/140/19 74/139/19 73/148/22
f  65/150/21 57/72/15 70/93/16
f  35/151/20 90/152/20 98/145/19
f  98/145/19 36/144/19 35/151/20
f  47/153/22 87/154/22 71/94/16
f  71/94/16 48/143/21 47/153/22
f  65/150/21 70/93/16 82/155/22
f  82/155/22 73/127/22 65/150/21
f  68/132/18 41/131/18 40/156/23
f  40/156/23 69/157/23 68/132/18
f  63/158/23 99/159/23 100/160/18
f  100/160/18 64/161/18 63/158/23
f  66/162/24 76/163/24 91/164/25
f  91/164/25 67/165/25 66/162/24
f  52/166/25 85/167/25 101/168/24
f  101/168/24 53/169/24 52/166/25
f  64/161/18 100/160/18 95/134/13
f  95/134/13 61/133/13 64/161/18
f  67/165/25 91/164/25 90/152/20
f  90/152/20 35/151/20 67/165/25
f  72/142/20 78/141/20 85/167/25
f  85/167/25 52/166/25 72/142/20
f  69/157/23 40/156/23 76/163/24
f  76/163/24 66/162/24 69/157/23
f  53/169/24 101/168/24 99/159/23
f  99/159/23 63/158/23 53/169/24
f  39/170/13 102/171/13 103/172/13
f  103/172/13 75/173/13 39/170/13
f  75/173/13 103/172/13 84/174/13
f  84/174/13 92/175/13 75/173/13
f  92/175/13 84/174/13 77/176/13
f  77/176/13 89/177/13 92/175/13
f  89/177/13 77/176/13 80/178/13
f  80/178/13 104/179/13 89/177/13
f  104/179/13 80/178/13 81/180/13
f  81/180/13 88/181/13 104/179/13
f  88/181/13 81/180/13 83/182/13
f  83/182/13 86/183/13 88/181/13
f  39/170/13 42/136/13 97/135/13
f  97/135/13 102/171/13 39/170/13
f  102/184/3 99/185/3 101/186/3
f  101/186/3 103/187/3 102/184/3
f  97/188/3 100/189/3 99/185/3
f  99/185/3 102/184/3 97/188/3
f  88/116/2 87/115/2 98/190/2
f  98/190/2 104/191/2 88/116/2
f  92/120/2 91/119/2 76/102/2
f  76/102/2 75/101/2 92/120/2
f  80/106/3 79/105/3 82/108/3
f  82/108/3 81/107/3 80/106/3
f  83/192/14 70/193/14 71/194/14
f  71/194/14 86/195/14 83/192/14
f  103/187/3 101/186/3 85/112/3
f  85/112/3 84/111/3 103/187/3
f  42/44/2 41/43/2 94/196/2
f  94/196/2 93/197/2 42/44/2
f  96/198/3 95/199/3 100/189/3
f  100/189/3 97/188/3 96/198/3
f  104/191/2 98/190/2 90/118/2
f  90/118/2 89/117/2 104/191/2

